# xmcd
#
# Track frame offsets:
#	150
#	15481
#	26796
#	36974
#	49482
#	60141
#	75064
#	85286
#	95519
#	109120
#	121181
#	130943
#	141841
#	154731
#	170142
#	179865
#	189993
#	202868
#	217412
#	229308
#
# Disc length: 3206 seconds
#
# Revision: 1
# Processed by: cddbd v1.5.2PL0 Copyright (c) Steve Scherf et al.
# Submitted via: EZCDAudioConverter 3.0.3.1
#
DISCID=160c8414
DTITLE=Various Artist - Hit and Memories:20 Pop Country Hits
DYEAR=1900
DGENRE=Country
TTITLE0=Face Of A Fighter
TTITLE1=Follow Me Back To Louisville
TTITLE2=Hello Walls
TTITLE3=Fraulein
TTITLE4=You Win Again
TTITLE5=Sixteen Tons
TTITLE6=Daddy Dang Bass
TTITLE7=Devil Woman
TTITLE8=Cold Cold Heart
TTITLE9=Sittin' In A Dim Cafe
TTITLE10=Cowboy Boots
TTITLE11=Gone
TTITLE12=These Boots Are Make For Worlking
TTITLE13=The Blizzard
TTITLE14=From A Jack To A King
TTITLE15=Rhythm and Booze
TTITLE16=Deep Purple
TTITLE17=I Got You Babe
TTITLE18=Mule Skinner Blues
TTITLE19=Mean - Eyed Cat
EXTD=
EXTT0=
EXTT1=
EXTT2=
EXTT3=
EXTT4=
EXTT5=
EXTT6=
EXTT7=
EXTT8=
EXTT9=
EXTT10=
EXTT11=
EXTT12=
EXTT13=
EXTT14=
EXTT15=
EXTT16=
EXTT17=
EXTT18=
EXTT19=
PLAYORDER=
